# MagicaVoxel @ Ephtracy

# group
o 

# material
mtllib PlayerShip.mtl
usemtl palette

# normals
vn -1 0 0
vn 1 0 0
vn 0 0 1
vn 0 0 -1
vn 0 -1 0
vn 0 1 0

# texcoords
vt 0.306641 0.5
vt 0.400391 0.5
vt 0.958984 0.5
vt 0.974609 0.5

# verts
v -2.8 -3 2.2
v -2.8 -3 2
v -2.8 -3 1.4
v -2.8 -3 -0.1
v -2.8 -2.2 2.2
v -2.8 -2.2 2
v -2.8 -2.2 1.4
v -2.8 -2.2 -0.1
v -2.7 -2.9 2.4
v -2.7 -2.9 2.2
v -2.7 -2.3 2.4
v -2.7 -2.3 2.2
v -1.8 -2.8 2.4
v -1.8 -2.8 2.3
v -1.8 -2.8 0.0999999
v -1.8 -2.8 0
v -1.8 -2.4 2.4
v -1.8 -2.4 2.3
v -1.8 -2.4 0.0999999
v -1.8 -2.4 0
v -1.7 -2.9 0
v -1.7 -2.9 -0.1
v -1.7 -2.3 0
v -1.7 -2.3 -0.1
v -1.4 -3 1.6
v -1.4 -3 -1.2
v -1.4 -3 -1.3
v -1.4 -2.9 -1.2
v -1.4 -2.9 -1.3
v -1.4 -2.7 1.6
v -1.4 -2.7 -1.2
v -1.4 -2.6 0.8
v -1.4 -2.6 0.0999999
v -1.4 -2.4 0.8
v -1.4 -2.4 0.0999999
v -1.4 -2.1 1.6
v -1.4 -2.1 -1.2
v -1.1 -2.6 -1.2
v -1.1 -2.6 -1.4
v -1.1 -2.1 1.6
v -1.1 -2.1 0
v -1.1 -2.1 -1.2
v -1.1 -2 1.6
v -1.1 -2 0
v -1.1 -2 -1.4
v -0.7 -2.9 -1.2
v -0.7 -2.9 -1.3
v -0.7 -2.7 -1.2
v -0.7 -2.7 -1.3
v -0.6 -3 -1.3
v -0.6 -3 -1.8
v -0.6 -3 -2
v -0.6 -3 -2.2
v -0.6 -2.7 -1.3
v -0.6 -2.7 -1.8
v -0.6 -2.7 -2
v -0.6 -2.7 -2.2
v -0.5 -2 1.6
v -0.5 -2 0.2
v -0.5 -1.9 0.3
v -0.5 -1.9 0.2
v -0.5 -1.8 0.4
v -0.5 -1.8 0.3
v -0.5 -1.7 1.6
v -0.5 -1.7 0.4
v -0.4 -2 0.2
v -0.4 -2 0.0999999
v -0.4 -1.9 0.3
v -0.4 -1.9 0.2
v -0.4 -1.9 0.0999999
v -0.4 -1.8 0.4
v -0.4 -1.8 0.3
v -0.4 -1.8 0.2
v -0.4 -1.7 1.6
v -0.4 -1.7 0.4
v -0.4 -1.7 0.3
v -0.4 -1.6 0.5
v -0.4 -1.6 0.4
v -0.4 -1.5 0.6
v -0.4 -1.5 0.5
v -0.4 -1.4 0.7
v -0.4 -1.4 0.6
v -0.4 -1.3 1.6
v -0.4 -1.3 0.7
v -0.2 -2.9 -2
v -0.2 -2.9 -2.2
v -0.2 -2.8 -2
v -0.2 -2.8 -2.2
v 0.9 -3 2.2
v 0.9 -3 2
v 0.9 -3 1.4
v 0.9 -3 -0.1
v 0.9 -2.6 0.8
v 0.9 -2.6 0.0999999
v 0.9 -2.4 0.8
v 0.9 -2.4 0.0999999
v 0.9 -2.2 2.2
v 0.9 -2.2 2
v 0.9 -2.2 1.4
v 0.9 -2.2 -0.1
v 1 -2.9 2.4
v 1 -2.9 2.2
v 1 -2.3 2.4
v 1 -2.3 2.2
v 1.9 -2.8 2.4
v 1.9 -2.8 2.3
v 1.9 -2.8 0.0999999
v 1.9 -2.8 0
v 1.9 -2.4 2.4
v 1.9 -2.4 2.3
v 1.9 -2.4 0.0999999
v 1.9 -2.4 0
v 2 -2.9 0
v 2 -2.9 -0.1
v 2 -2.3 0
v 2 -2.3 -0.1
v -2.7 -2.9 0
v -2.7 -2.9 -0.1
v -2.7 -2.3 0
v -2.7 -2.3 -0.1
v -2.6 -2.8 2.4
v -2.6 -2.8 2.3
v -2.6 -2.8 0.0999999
v -2.6 -2.8 0
v -2.6 -2.4 2.4
v -2.6 -2.4 2.3
v -2.6 -2.4 0.0999999
v -2.6 -2.4 0
v -1.7 -2.9 2.4
v -1.7 -2.9 2.2
v -1.7 -2.3 2.4
v -1.7 -2.3 2.2
v -1.6 -3 2.2
v -1.6 -3 2
v -1.6 -3 1.4
v -1.6 -3 -0.1
v -1.6 -2.6 0.8
v -1.6 -2.6 0.0999999
v -1.6 -2.4 0.8
v -1.6 -2.4 0.0999999
v -1.6 -2.2 2.2
v -1.6 -2.2 2
v -1.6 -2.2 1.4
v -1.6 -2.2 -0.1
v -0.5 -2.9 -2
v -0.5 -2.9 -2.2
v -0.5 -2.8 -2
v -0.5 -2.8 -2.2
v -0.3 -2 0.2
v -0.3 -2 0.0999999
v -0.3 -1.9 0.3
v -0.3 -1.9 0.2
v -0.3 -1.9 0.0999999
v -0.3 -1.8 0.4
v -0.3 -1.8 0.3
v -0.3 -1.8 0.2
v -0.3 -1.7 1.6
v -0.3 -1.7 0.4
v -0.3 -1.7 0.3
v -0.3 -1.6 0.5
v -0.3 -1.6 0.4
v -0.3 -1.5 0.6
v -0.3 -1.5 0.5
v -0.3 -1.4 0.7
v -0.3 -1.4 0.6
v -0.3 -1.3 1.6
v -0.3 -1.3 0.7
v -0.2 -2 1.6
v -0.2 -2 0.2
v -0.2 -1.9 0.3
v -0.2 -1.9 0.2
v -0.2 -1.8 0.4
v -0.2 -1.8 0.3
v -0.2 -1.7 1.6
v -0.2 -1.7 0.4
v -0.1 -3 -1.3
v -0.1 -3 -1.8
v -0.1 -3 -2
v -0.1 -3 -2.2
v -0.1 -2.7 -1.3
v -0.1 -2.7 -1.8
v -0.1 -2.7 -2
v -0.1 -2.7 -2.2
v 0 -2.9 -1.2
v 0 -2.9 -1.3
v 0 -2.7 -1.2
v 0 -2.7 -1.3
v 0.4 -2.6 -1.2
v 0.4 -2.6 -1.4
v 0.4 -2.1 1.6
v 0.4 -2.1 0
v 0.4 -2.1 -1.2
v 0.4 -2 1.6
v 0.4 -2 0
v 0.4 -2 -1.4
v 0.7 -3 1.6
v 0.7 -3 -1.2
v 0.7 -3 -1.3
v 0.7 -2.9 -1.2
v 0.7 -2.9 -1.3
v 0.7 -2.7 1.6
v 0.7 -2.7 -1.2
v 0.7 -2.6 0.8
v 0.7 -2.6 0.0999999
v 0.7 -2.4 0.8
v 0.7 -2.4 0.0999999
v 0.7 -2.1 1.6
v 0.7 -2.1 -1.2
v 1 -2.9 0
v 1 -2.9 -0.1
v 1 -2.3 0
v 1 -2.3 -0.1
v 1.1 -2.8 2.4
v 1.1 -2.8 2.3
v 1.1 -2.8 0.0999999
v 1.1 -2.8 0
v 1.1 -2.4 2.4
v 1.1 -2.4 2.3
v 1.1 -2.4 0.0999999
v 1.1 -2.4 0
v 2 -2.9 2.4
v 2 -2.9 2.2
v 2 -2.3 2.4
v 2 -2.3 2.2
v 2.1 -3 2.2
v 2.1 -3 2
v 2.1 -3 1.4
v 2.1 -3 -0.1
v 2.1 -2.2 2.2
v 2.1 -2.2 2
v 2.1 -2.2 1.4
v 2.1 -2.2 -0.1
v -2.7 -2.9 2.4
v -2.7 -2.3 2.4
v -2.6 -2.8 2.4
v -2.6 -2.4 2.4
v -1.8 -2.8 2.4
v -1.8 -2.4 2.4
v -1.7 -2.9 2.4
v -1.7 -2.3 2.4
v 1 -2.9 2.4
v 1 -2.3 2.4
v 1.1 -2.8 2.4
v 1.1 -2.4 2.4
v 1.9 -2.8 2.4
v 1.9 -2.4 2.4
v 2 -2.9 2.4
v 2 -2.3 2.4
v -2.6 -2.8 2.3
v -2.6 -2.4 2.3
v -1.8 -2.8 2.3
v -1.8 -2.4 2.3
v 1.1 -2.8 2.3
v 1.1 -2.4 2.3
v 1.9 -2.8 2.3
v 1.9 -2.4 2.3
v -2.8 -3 2.2
v -2.8 -2.2 2.2
v -2.7 -2.9 2.2
v -2.7 -2.3 2.2
v -1.7 -2.9 2.2
v -1.7 -2.3 2.2
v -1.6 -3 2.2
v -1.6 -2.2 2.2
v 0.9 -3 2.2
v 0.9 -2.2 2.2
v 1 -2.9 2.2
v 1 -2.3 2.2
v 2 -2.9 2.2
v 2 -2.3 2.2
v 2.1 -3 2.2
v 2.1 -2.2 2.2
v -1.4 -3 1.6
v -1.4 -2.7 1.6
v -1.4 -2.1 1.6
v -1.1 -2.1 1.6
v -1.1 -2 1.6
v -0.5 -2 1.6
v -0.5 -1.7 1.6
v -0.4 -1.7 1.6
v -0.4 -1.3 1.6
v -0.3 -1.7 1.6
v -0.3 -1.3 1.6
v -0.2 -2 1.6
v -0.2 -1.7 1.6
v 0.4 -2.1 1.6
v 0.4 -2 1.6
v 0.7 -3 1.6
v 0.7 -2.7 1.6
v 0.7 -2.1 1.6
v -1.6 -2.6 0.8
v -1.6 -2.4 0.8
v -1.4 -2.6 0.8
v -1.4 -2.4 0.8
v 0.7 -2.6 0.8
v 0.7 -2.4 0.8
v 0.9 -2.6 0.8
v 0.9 -2.4 0.8
v -0.4 -1.4 0.7
v -0.4 -1.3 0.7
v -0.3 -1.4 0.7
v -0.3 -1.3 0.7
v -0.4 -1.5 0.6
v -0.4 -1.4 0.6
v -0.3 -1.5 0.6
v -0.3 -1.4 0.6
v -0.4 -1.6 0.5
v -0.4 -1.5 0.5
v -0.3 -1.6 0.5
v -0.3 -1.5 0.5
v -0.5 -1.8 0.4
v -0.5 -1.7 0.4
v -0.4 -1.8 0.4
v -0.4 -1.7 0.4
v -0.4 -1.6 0.4
v -0.3 -1.8 0.4
v -0.3 -1.7 0.4
v -0.3 -1.6 0.4
v -0.2 -1.8 0.4
v -0.2 -1.7 0.4
v -0.5 -1.9 0.3
v -0.5 -1.8 0.3
v -0.4 -1.9 0.3
v -0.4 -1.8 0.3
v -0.4 -1.7 0.3
v -0.3 -1.9 0.3
v -0.3 -1.8 0.3
v -0.3 -1.7 0.3
v -0.2 -1.9 0.3
v -0.2 -1.8 0.3
v -0.5 -2 0.2
v -0.5 -1.9 0.2
v -0.4 -2 0.2
v -0.4 -1.9 0.2
v -0.4 -1.8 0.2
v -0.3 -2 0.2
v -0.3 -1.9 0.2
v -0.3 -1.8 0.2
v -0.2 -2 0.2
v -0.2 -1.9 0.2
v -2.6 -2.8 0.0999999
v -2.6 -2.4 0.0999999
v -1.8 -2.8 0.0999999
v -1.8 -2.4 0.0999999
v -1.6 -2.6 0.0999999
v -1.6 -2.4 0.0999999
v -1.4 -2.6 0.0999999
v -1.4 -2.4 0.0999999
v -0.4 -2 0.0999999
v -0.4 -1.9 0.0999999
v -0.3 -2 0.0999999
v -0.3 -1.9 0.0999999
v 0.7 -2.6 0.0999999
v 0.7 -2.4 0.0999999
v 0.9 -2.6 0.0999999
v 0.9 -2.4 0.0999999
v 1.1 -2.8 0.0999999
v 1.1 -2.4 0.0999999
v 1.9 -2.8 0.0999999
v 1.9 -2.4 0.0999999
v -2.7 -2.9 0
v -2.7 -2.3 0
v -2.6 -2.8 0
v -2.6 -2.4 0
v -1.8 -2.8 0
v -1.8 -2.4 0
v -1.7 -2.9 0
v -1.7 -2.3 0
v 1 -2.9 0
v 1 -2.3 0
v 1.1 -2.8 0
v 1.1 -2.4 0
v 1.9 -2.8 0
v 1.9 -2.4 0
v 2 -2.9 0
v 2 -2.3 0
v -2.8 -3 -0.1
v -2.8 -2.2 -0.1
v -2.7 -2.9 -0.1
v -2.7 -2.3 -0.1
v -1.7 -2.9 -0.1
v -1.7 -2.3 -0.1
v -1.6 -3 -0.1
v -1.6 -2.2 -0.1
v 0.9 -3 -0.1
v 0.9 -2.2 -0.1
v 1 -2.9 -0.1
v 1 -2.3 -0.1
v 2 -2.9 -0.1
v 2 -2.3 -0.1
v 2.1 -3 -0.1
v 2.1 -2.2 -0.1
v -1.4 -2.9 -1.2
v -1.4 -2.7 -1.2
v -1.4 -2.1 -1.2
v -1.1 -2.6 -1.2
v -1.1 -2.1 -1.2
v -0.7 -2.9 -1.2
v -0.7 -2.7 -1.2
v 0 -2.9 -1.2
v 0 -2.7 -1.2
v 0.4 -2.6 -1.2
v 0.4 -2.1 -1.2
v 0.7 -2.9 -1.2
v 0.7 -2.7 -1.2
v 0.7 -2.1 -1.2
v -1.4 -3 -1.3
v -1.4 -2.9 -1.3
v -0.7 -2.9 -1.3
v -0.7 -2.7 -1.3
v -0.6 -3 -1.3
v -0.6 -2.7 -1.3
v -0.1 -3 -1.3
v -0.1 -2.7 -1.3
v 0 -2.9 -1.3
v 0 -2.7 -1.3
v 0.7 -3 -1.3
v 0.7 -2.9 -1.3
v -1.1 -2.6 -1.4
v -1.1 -2 -1.4
v 0.4 -2.6 -1.4
v 0.4 -2 -1.4
v -0.5 -2.9 -2
v -0.5 -2.8 -2
v -0.2 -2.9 -2
v -0.2 -2.8 -2
v -0.6 -3 -2.2
v -0.6 -2.7 -2.2
v -0.5 -2.9 -2.2
v -0.5 -2.8 -2.2
v -0.2 -2.9 -2.2
v -0.2 -2.8 -2.2
v -0.1 -3 -2.2
v -0.1 -2.7 -2.2
v -2.8 -3 2.2
v -1.6 -3 2.2
v 0.9 -3 2.2
v 2.1 -3 2.2
v -2.8 -3 2
v -1.6 -3 2
v 0.9 -3 2
v 2.1 -3 2
v -1.4 -3 1.6
v 0.7 -3 1.6
v -2.8 -3 1.4
v -1.6 -3 1.4
v 0.9 -3 1.4
v 2.1 -3 1.4
v -2.8 -3 -0.1
v -1.6 -3 -0.1
v 0.9 -3 -0.1
v 2.1 -3 -0.1
v -1.4 -3 -1.2
v 0.7 -3 -1.2
v -1.4 -3 -1.3
v -0.6 -3 -1.3
v -0.1 -3 -1.3
v 0.7 -3 -1.3
v -0.6 -3 -1.8
v -0.1 -3 -1.8
v -0.6 -3 -2
v -0.1 -3 -2
v -0.6 -3 -2.2
v -0.1 -3 -2.2
v -2.7 -2.9 2.4
v -1.7 -2.9 2.4
v 1 -2.9 2.4
v 2 -2.9 2.4
v -2.7 -2.9 2.2
v -1.7 -2.9 2.2
v 1 -2.9 2.2
v 2 -2.9 2.2
v -0.5 -2.8 -2
v -0.2 -2.8 -2
v -0.5 -2.8 -2.2
v -0.2 -2.8 -2.2
v -1.6 -2.6 0.8
v -1.4 -2.6 0.8
v 0.7 -2.6 0.8
v 0.9 -2.6 0.8
v -1.6 -2.6 0.0999999
v -1.4 -2.6 0.0999999
v 0.7 -2.6 0.0999999
v 0.9 -2.6 0.0999999
v -1.1 -2.6 -1.2
v 0.4 -2.6 -1.2
v -1.1 -2.6 -1.4
v 0.4 -2.6 -1.4
v -2.6 -2.4 2.4
v -1.8 -2.4 2.4
v 1.1 -2.4 2.4
v 1.9 -2.4 2.4
v -2.6 -2.4 2.3
v -1.8 -2.4 2.3
v 1.1 -2.4 2.3
v 1.9 -2.4 2.3
v -2.6 -2.4 0.0999999
v -1.8 -2.4 0.0999999
v 1.1 -2.4 0.0999999
v 1.9 -2.4 0.0999999
v -2.6 -2.4 0
v -1.8 -2.4 0
v 1.1 -2.4 0
v 1.9 -2.4 0
v -2.7 -2.3 0
v -1.7 -2.3 0
v 1 -2.3 0
v 2 -2.3 0
v -2.7 -2.3 -0.1
v -1.7 -2.3 -0.1
v 1 -2.3 -0.1
v 2 -2.3 -0.1
v -2.7 -2.9 0
v -1.7 -2.9 0
v 1 -2.9 0
v 2 -2.9 0
v -2.7 -2.9 -0.1
v -1.7 -2.9 -0.1
v 1 -2.9 -0.1
v 2 -2.9 -0.1
v -1.4 -2.9 -1.2
v -0.7 -2.9 -1.2
v 0 -2.9 -1.2
v 0.7 -2.9 -1.2
v -1.4 -2.9 -1.3
v -0.7 -2.9 -1.3
v 0 -2.9 -1.3
v 0.7 -2.9 -1.3
v -0.5 -2.9 -2
v -0.2 -2.9 -2
v -0.5 -2.9 -2.2
v -0.2 -2.9 -2.2
v -2.6 -2.8 2.4
v -1.8 -2.8 2.4
v 1.1 -2.8 2.4
v 1.9 -2.8 2.4
v -2.6 -2.8 2.3
v -1.8 -2.8 2.3
v 1.1 -2.8 2.3
v 1.9 -2.8 2.3
v -2.6 -2.8 0.0999999
v -1.8 -2.8 0.0999999
v 1.1 -2.8 0.0999999
v 1.9 -2.8 0.0999999
v -2.6 -2.8 0
v -1.8 -2.8 0
v 1.1 -2.8 0
v 1.9 -2.8 0
v -0.7 -2.7 -1.2
v 0 -2.7 -1.2
v -0.7 -2.7 -1.3
v -0.6 -2.7 -1.3
v -0.1 -2.7 -1.3
v 0 -2.7 -1.3
v -0.6 -2.7 -1.8
v -0.1 -2.7 -1.8
v -0.6 -2.7 -2
v -0.1 -2.7 -2
v -0.6 -2.7 -2.2
v -0.1 -2.7 -2.2
v -1.6 -2.4 0.8
v -1.4 -2.4 0.8
v 0.7 -2.4 0.8
v 0.9 -2.4 0.8
v -1.6 -2.4 0.0999999
v -1.4 -2.4 0.0999999
v 0.7 -2.4 0.0999999
v 0.9 -2.4 0.0999999
v -2.7 -2.3 2.4
v -1.7 -2.3 2.4
v 1 -2.3 2.4
v 2 -2.3 2.4
v -2.7 -2.3 2.2
v -1.7 -2.3 2.2
v 1 -2.3 2.2
v 2 -2.3 2.2
v -2.8 -2.2 2.2
v -1.6 -2.2 2.2
v 0.9 -2.2 2.2
v 2.1 -2.2 2.2
v -2.8 -2.2 2
v -1.6 -2.2 2
v 0.9 -2.2 2
v 2.1 -2.2 2
v -2.8 -2.2 1.4
v -1.6 -2.2 1.4
v 0.9 -2.2 1.4
v 2.1 -2.2 1.4
v -2.8 -2.2 -0.1
v -1.6 -2.2 -0.1
v 0.9 -2.2 -0.1
v 2.1 -2.2 -0.1
v -1.4 -2.1 1.6
v -1.1 -2.1 1.6
v 0.4 -2.1 1.6
v 0.7 -2.1 1.6
v -1.1 -2.1 0
v 0.4 -2.1 0
v -1.4 -2.1 -1.2
v -1.1 -2.1 -1.2
v 0.4 -2.1 -1.2
v 0.7 -2.1 -1.2
v -1.1 -2 1.6
v -0.5 -2 1.6
v -0.2 -2 1.6
v 0.4 -2 1.6
v -0.5 -2 0.2
v -0.4 -2 0.2
v -0.3 -2 0.2
v -0.2 -2 0.2
v -0.4 -2 0.0999999
v -0.3 -2 0.0999999
v -1.1 -2 0
v 0.4 -2 0
v -1.1 -2 -1.4
v 0.4 -2 -1.4
v -0.5 -1.9 0.3
v -0.4 -1.9 0.3
v -0.3 -1.9 0.3
v -0.2 -1.9 0.3
v -0.5 -1.9 0.2
v -0.4 -1.9 0.2
v -0.3 -1.9 0.2
v -0.2 -1.9 0.2
v -0.4 -1.9 0.0999999
v -0.3 -1.9 0.0999999
v -0.5 -1.8 0.4
v -0.4 -1.8 0.4
v -0.3 -1.8 0.4
v -0.2 -1.8 0.4
v -0.5 -1.8 0.3
v -0.4 -1.8 0.3
v -0.3 -1.8 0.3
v -0.2 -1.8 0.3
v -0.4 -1.8 0.2
v -0.3 -1.8 0.2
v -0.5 -1.7 1.6
v -0.4 -1.7 1.6
v -0.3 -1.7 1.6
v -0.2 -1.7 1.6
v -0.5 -1.7 0.4
v -0.4 -1.7 0.4
v -0.3 -1.7 0.4
v -0.2 -1.7 0.4
v -0.4 -1.7 0.3
v -0.3 -1.7 0.3
v -0.4 -1.6 0.5
v -0.3 -1.6 0.5
v -0.4 -1.6 0.4
v -0.3 -1.6 0.4
v -0.4 -1.5 0.6
v -0.3 -1.5 0.6
v -0.4 -1.5 0.5
v -0.3 -1.5 0.5
v -0.4 -1.4 0.7
v -0.3 -1.4 0.7
v -0.4 -1.4 0.6
v -0.3 -1.4 0.6
v -0.4 -1.3 1.6
v -0.3 -1.3 1.6
v -0.4 -1.3 0.7
v -0.3 -1.3 0.7

# faces
f 5/3/1 2/3/1 1/3/1
f 6/2/1 3/2/1 2/2/1
f 6/3/1 2/3/1 5/3/1
f 7/3/1 4/3/1 3/3/1
f 7/2/1 3/2/1 6/2/1
f 8/3/1 4/3/1 7/3/1
f 11/4/1 10/4/1 9/4/1
f 12/4/1 10/4/1 11/4/1
f 17/4/1 14/4/1 13/4/1
f 18/4/1 14/4/1 17/4/1
f 19/3/1 16/3/1 15/3/1
f 20/3/1 16/3/1 19/3/1
f 23/3/1 22/3/1 21/3/1
f 24/3/1 22/3/1 23/3/1
f 28/4/1 26/4/1 25/4/1
f 28/3/1 27/3/1 26/3/1
f 29/3/1 27/3/1 28/3/1
f 30/4/1 28/4/1 25/4/1
f 31/4/1 28/4/1 30/4/1
f 32/3/1 31/3/1 30/3/1
f 33/3/1 31/3/1 32/3/1
f 34/3/1 32/3/1 30/3/1
f 35/3/1 31/3/1 33/3/1
f 36/3/1 34/3/1 30/3/1
f 36/3/1 35/3/1 34/3/1
f 37/3/1 31/3/1 35/3/1
f 37/3/1 35/3/1 36/3/1
f 42/1/1 39/1/1 38/1/1
f 43/3/1 41/3/1 40/3/1
f 44/1/1 42/1/1 41/1/1
f 44/3/1 41/3/1 43/3/1
f 45/1/1 39/1/1 42/1/1
f 45/1/1 42/1/1 44/1/1
f 48/3/1 47/3/1 46/3/1
f 49/3/1 47/3/1 48/3/1
f 54/3/1 51/3/1 50/3/1
f 55/2/1 52/2/1 51/2/1
f 55/3/1 51/3/1 54/3/1
f 56/3/1 53/3/1 52/3/1
f 56/2/1 52/2/1 55/2/1
f 57/3/1 53/3/1 56/3/1
f 60/3/1 59/3/1 58/3/1
f 61/3/1 59/3/1 60/3/1
f 62/3/1 60/3/1 58/3/1
f 63/3/1 60/3/1 62/3/1
f 64/3/1 62/3/1 58/3/1
f 65/3/1 62/3/1 64/3/1
f 69/3/1 67/3/1 66/3/1
f 70/3/1 67/3/1 69/3/1
f 72/3/1 69/3/1 68/3/1
f 73/3/1 69/3/1 72/3/1
f 75/3/1 72/3/1 71/3/1
f 76/3/1 72/3/1 75/3/1
f 77/3/1 75/3/1 74/3/1
f 78/3/1 75/3/1 77/3/1
f 79/3/1 77/3/1 74/3/1
f 80/3/1 77/3/1 79/3/1
f 81/3/1 79/3/1 74/3/1
f 82/3/1 79/3/1 81/3/1
f 83/3/1 81/3/1 74/3/1
f 84/3/1 81/3/1 83/3/1
f 87/3/1 86/3/1 85/3/1
f 88/3/1 86/3/1 87/3/1
f 93/3/1 92/3/1 91/3/1
f 94/3/1 92/3/1 93/3/1
f 95/3/1 93/3/1 91/3/1
f 96/3/1 92/3/1 94/3/1
f 97/3/1 90/3/1 89/3/1
f 98/2/1 91/2/1 90/2/1
f 98/3/1 90/3/1 97/3/1
f 99/3/1 96/3/1 95/3/1
f 99/2/1 91/2/1 98/2/1
f 99/3/1 95/3/1 91/3/1
f 100/3/1 92/3/1 96/3/1
f 100/3/1 96/3/1 99/3/1
f 103/4/1 102/4/1 101/4/1
f 104/4/1 102/4/1 103/4/1
f 109/4/1 106/4/1 105/4/1
f 110/4/1 106/4/1 109/4/1
f 111/3/1 108/3/1 107/3/1
f 112/3/1 108/3/1 111/3/1
f 115/3/1 114/3/1 113/3/1
f 116/3/1 114/3/1 115/3/1
f 117/3/2 118/3/2 119/3/2
f 119/3/2 118/3/2 120/3/2
f 121/4/2 122/4/2 125/4/2
f 125/4/2 122/4/2 126/4/2
f 123/3/2 124/3/2 127/3/2
f 127/3/2 124/3/2 128/3/2
f 129/4/2 130/4/2 131/4/2
f 131/4/2 130/4/2 132/4/2
f 135/3/2 136/3/2 137/3/2
f 137/3/2 136/3/2 138/3/2
f 135/3/2 137/3/2 139/3/2
f 138/3/2 136/3/2 140/3/2
f 133/3/2 134/3/2 141/3/2
f 134/2/2 135/2/2 142/2/2
f 141/3/2 134/3/2 142/3/2
f 139/3/2 140/3/2 143/3/2
f 142/2/2 135/2/2 143/2/2
f 135/3/2 139/3/2 143/3/2
f 140/3/2 136/3/2 144/3/2
f 143/3/2 140/3/2 144/3/2
f 145/3/2 146/3/2 147/3/2
f 147/3/2 146/3/2 148/3/2
f 149/3/2 150/3/2 152/3/2
f 152/3/2 150/3/2 153/3/2
f 151/3/2 152/3/2 155/3/2
f 155/3/2 152/3/2 156/3/2
f 154/3/2 155/3/2 158/3/2
f 158/3/2 155/3/2 159/3/2
f 157/3/2 158/3/2 160/3/2
f 160/3/2 158/3/2 161/3/2
f 157/3/2 160/3/2 162/3/2
f 162/3/2 160/3/2 163/3/2
f 157/3/2 162/3/2 164/3/2
f 164/3/2 162/3/2 165/3/2
f 157/3/2 164/3/2 166/3/2
f 166/3/2 164/3/2 167/3/2
f 168/3/2 169/3/2 170/3/2
f 170/3/2 169/3/2 171/3/2
f 168/3/2 170/3/2 172/3/2
f 172/3/2 170/3/2 173/3/2
f 168/3/2 172/3/2 174/3/2
f 174/3/2 172/3/2 175/3/2
f 176/3/2 177/3/2 180/3/2
f 177/2/2 178/2/2 181/2/2
f 180/3/2 177/3/2 181/3/2
f 178/3/2 179/3/2 182/3/2
f 181/2/2 178/2/2 182/2/2
f 182/3/2 179/3/2 183/3/2
f 184/3/2 185/3/2 186/3/2
f 186/3/2 185/3/2 187/3/2
f 188/1/2 189/1/2 192/1/2
f 190/3/2 191/3/2 193/3/2
f 191/1/2 192/1/2 194/1/2
f 193/3/2 191/3/2 194/3/2
f 192/1/2 189/1/2 195/1/2
f 194/1/2 192/1/2 195/1/2
f 196/4/2 197/4/2 199/4/2
f 197/3/2 198/3/2 199/3/2
f 199/3/2 198/3/2 200/3/2
f 196/4/2 199/4/2 201/4/2
f 201/4/2 199/4/2 202/4/2
f 201/3/2 202/3/2 203/3/2
f 203/3/2 202/3/2 204/3/2
f 201/3/2 203/3/2 205/3/2
f 204/3/2 202/3/2 206/3/2
f 201/3/2 205/3/2 207/3/2
f 205/3/2 206/3/2 207/3/2
f 206/3/2 202/3/2 208/3/2
f 207/3/2 206/3/2 208/3/2
f 209/3/2 210/3/2 211/3/2
f 211/3/2 210/3/2 212/3/2
f 213/4/2 214/4/2 217/4/2
f 217/4/2 214/4/2 218/4/2
f 215/3/2 216/3/2 219/3/2
f 219/3/2 216/3/2 220/3/2
f 221/4/2 222/4/2 223/4/2
f 223/4/2 222/4/2 224/4/2
f 225/3/2 226/3/2 229/3/2
f 226/2/2 227/2/2 230/2/2
f 229/3/2 226/3/2 230/3/2
f 227/3/2 228/3/2 231/3/2
f 230/2/2 227/2/2 231/2/2
f 231/3/2 228/3/2 232/3/2
f 235/4/3 234/4/3 233/4/3
f 236/4/3 234/4/3 235/4/3
f 237/4/3 235/4/3 233/4/3
f 238/4/3 234/4/3 236/4/3
f 239/4/3 237/4/3 233/4/3
f 239/4/3 238/4/3 237/4/3
f 240/4/3 234/4/3 238/4/3
f 240/4/3 238/4/3 239/4/3
f 243/4/3 242/4/3 241/4/3
f 244/4/3 242/4/3 243/4/3
f 245/4/3 243/4/3 241/4/3
f 246/4/3 242/4/3 244/4/3
f 247/4/3 245/4/3 241/4/3
f 247/4/3 246/4/3 245/4/3
f 248/4/3 242/4/3 246/4/3
f 248/4/3 246/4/3 247/4/3
f 251/4/3 250/4/3 249/4/3
f 252/4/3 250/4/3 251/4/3
f 255/4/3 254/4/3 253/4/3
f 256/4/3 254/4/3 255/4/3
f 259/3/3 258/3/3 257/3/3
f 260/3/3 258/3/3 259/3/3
f 261/3/3 259/3/3 257/3/3
f 262/3/3 258/3/3 260/3/3
f 263/3/3 261/3/3 257/3/3
f 263/3/3 262/3/3 261/3/3
f 264/3/3 258/3/3 262/3/3
f 264/3/3 262/3/3 263/3/3
f 267/3/3 266/3/3 265/3/3
f 268/3/3 266/3/3 267/3/3
f 269/3/3 267/3/3 265/3/3
f 270/3/3 266/3/3 268/3/3
f 271/3/3 269/3/3 265/3/3
f 271/3/3 270/3/3 269/3/3
f 272/3/3 266/3/3 270/3/3
f 272/3/3 270/3/3 271/3/3
f 276/3/3 275/3/3 274/3/3
f 278/3/3 277/3/3 276/3/3
f 280/3/3 279/3/3 278/3/3
f 282/3/3 280/3/3 278/3/3
f 282/3/3 281/3/3 280/3/3
f 283/3/3 281/3/3 282/3/3
f 284/3/3 278/3/3 276/3/3
f 284/3/3 282/3/3 278/3/3
f 285/3/3 282/3/3 284/3/3
f 286/3/3 276/3/3 274/3/3
f 286/3/3 284/3/3 276/3/3
f 287/3/3 284/3/3 286/3/3
f 288/4/3 274/4/3 273/4/3
f 289/3/3 286/3/3 274/3/3
f 289/4/3 274/4/3 288/4/3
f 290/3/3 286/3/3 289/3/3
f 293/4/3 292/4/3 291/4/3
f 294/4/3 292/4/3 293/4/3
f 297/4/3 296/4/3 295/4/3
f 298/4/3 296/4/3 297/4/3
f 299/3/4 300/3/4 301/3/4
f 301/3/4 300/3/4 302/3/4
f 303/3/4 304/3/4 305/3/4
f 305/3/4 304/3/4 306/3/4
f 307/3/4 308/3/4 309/3/4
f 309/3/4 308/3/4 310/3/4
f 311/3/4 312/3/4 313/3/4
f 313/3/4 312/3/4 314/3/4
f 314/3/4 315/3/4 317/3/4
f 317/3/4 315/3/4 318/3/4
f 316/3/4 317/3/4 319/3/4
f 319/3/4 317/3/4 320/3/4
f 321/3/4 322/3/4 323/3/4
f 323/3/4 322/3/4 324/3/4
f 324/3/4 325/3/4 327/3/4
f 327/3/4 325/3/4 328/3/4
f 326/3/4 327/3/4 329/3/4
f 329/3/4 327/3/4 330/3/4
f 331/3/4 332/3/4 333/3/4
f 333/3/4 332/3/4 334/3/4
f 334/3/4 335/3/4 337/3/4
f 337/3/4 335/3/4 338/3/4
f 336/3/4 337/3/4 339/3/4
f 339/3/4 337/3/4 340/3/4
f 341/4/4 342/4/4 343/4/4
f 343/4/4 342/4/4 344/4/4
f 345/4/4 346/4/4 347/4/4
f 347/4/4 346/4/4 348/4/4
f 349/3/4 350/3/4 351/3/4
f 351/3/4 350/3/4 352/3/4
f 353/4/4 354/4/4 355/4/4
f 355/4/4 354/4/4 356/4/4
f 357/4/4 358/4/4 359/4/4
f 359/4/4 358/4/4 360/4/4
f 361/3/4 362/3/4 363/3/4
f 363/3/4 362/3/4 364/3/4
f 361/3/4 363/3/4 365/3/4
f 364/3/4 362/3/4 366/3/4
f 361/3/4 365/3/4 367/3/4
f 365/3/4 366/3/4 367/3/4
f 366/3/4 362/3/4 368/3/4
f 367/3/4 366/3/4 368/3/4
f 369/3/4 370/3/4 371/3/4
f 371/3/4 370/3/4 372/3/4
f 369/3/4 371/3/4 373/3/4
f 372/3/4 370/3/4 374/3/4
f 369/3/4 373/3/4 375/3/4
f 373/3/4 374/3/4 375/3/4
f 374/3/4 370/3/4 376/3/4
f 375/3/4 374/3/4 376/3/4
f 377/3/4 378/3/4 379/3/4
f 379/3/4 378/3/4 380/3/4
f 377/3/4 379/3/4 381/3/4
f 380/3/4 378/3/4 382/3/4
f 377/3/4 381/3/4 383/3/4
f 381/3/4 382/3/4 383/3/4
f 382/3/4 378/3/4 384/3/4
f 383/3/4 382/3/4 384/3/4
f 385/3/4 386/3/4 387/3/4
f 387/3/4 386/3/4 388/3/4
f 385/3/4 387/3/4 389/3/4
f 388/3/4 386/3/4 390/3/4
f 385/3/4 389/3/4 391/3/4
f 389/3/4 390/3/4 391/3/4
f 390/3/4 386/3/4 392/3/4
f 391/3/4 390/3/4 392/3/4
f 394/3/4 395/3/4 396/3/4
f 396/3/4 395/3/4 397/3/4
f 393/4/4 394/4/4 398/4/4
f 394/3/4 396/3/4 399/3/4
f 398/4/4 394/4/4 399/4/4
f 399/3/4 396/3/4 401/3/4
f 401/3/4 396/3/4 402/3/4
f 400/4/4 401/4/4 404/4/4
f 402/3/4 403/3/4 405/3/4
f 404/4/4 401/4/4 405/4/4
f 401/3/4 402/3/4 405/3/4
f 405/3/4 403/3/4 406/3/4
f 407/3/4 408/3/4 409/3/4
f 407/3/4 409/3/4 411/3/4
f 409/3/4 410/3/4 411/3/4
f 411/3/4 410/3/4 412/3/4
f 413/3/4 414/3/4 415/3/4
f 415/3/4 414/3/4 416/3/4
f 413/3/4 415/3/4 417/3/4
f 417/3/4 415/3/4 418/3/4
f 419/1/4 420/1/4 421/1/4
f 421/1/4 420/1/4 422/1/4
f 423/2/4 424/2/4 425/2/4
f 425/2/4 424/2/4 426/2/4
f 427/3/4 428/3/4 429/3/4
f 429/3/4 428/3/4 430/3/4
f 427/3/4 429/3/4 431/3/4
f 430/3/4 428/3/4 432/3/4
f 427/3/4 431/3/4 433/3/4
f 431/3/4 432/3/4 433/3/4
f 432/3/4 428/3/4 434/3/4
f 433/3/4 432/3/4 434/3/4
f 439/3/5 436/3/5 435/3/5
f 440/3/5 436/3/5 439/3/5
f 441/3/5 438/3/5 437/3/5
f 442/3/5 438/3/5 441/3/5
f 445/2/5 440/2/5 439/2/5
f 446/2/5 440/2/5 445/2/5
f 447/2/5 442/2/5 441/2/5
f 448/2/5 442/2/5 447/2/5
f 449/3/5 446/3/5 445/3/5
f 450/3/5 446/3/5 449/3/5
f 451/3/5 448/3/5 447/3/5
f 452/3/5 448/3/5 451/3/5
f 453/4/5 444/4/5 443/4/5
f 454/4/5 444/4/5 453/4/5
f 455/3/5 454/3/5 453/3/5
f 456/3/5 454/3/5 455/3/5
f 457/3/5 454/3/5 456/3/5
f 458/3/5 454/3/5 457/3/5
f 459/3/5 457/3/5 456/3/5
f 460/3/5 457/3/5 459/3/5
f 461/2/5 460/2/5 459/2/5
f 462/2/5 460/2/5 461/2/5
f 463/3/5 462/3/5 461/3/5
f 464/3/5 462/3/5 463/3/5
f 469/4/5 466/4/5 465/4/5
f 470/4/5 466/4/5 469/4/5
f 471/4/5 468/4/5 467/4/5
f 472/4/5 468/4/5 471/4/5
f 475/3/5 474/3/5 473/3/5
f 476/3/5 474/3/5 475/3/5
f 481/4/5 478/4/5 477/4/5
f 482/4/5 478/4/5 481/4/5
f 483/4/5 480/4/5 479/4/5
f 484/4/5 480/4/5 483/4/5
f 487/1/5 486/1/5 485/1/5
f 488/1/5 486/1/5 487/1/5
f 493/4/5 490/4/5 489/4/5
f 494/4/5 490/4/5 493/4/5
f 495/4/5 492/4/5 491/4/5
f 496/4/5 492/4/5 495/4/5
f 501/3/5 498/3/5 497/3/5
f 502/3/5 498/3/5 501/3/5
f 503/3/5 500/3/5 499/3/5
f 504/3/5 500/3/5 503/3/5
f 509/3/5 506/3/5 505/3/5
f 510/3/5 506/3/5 509/3/5
f 511/3/5 508/3/5 507/3/5
f 512/3/5 508/3/5 511/3/5
f 513/3/6 514/3/6 517/3/6
f 517/3/6 514/3/6 518/3/6
f 515/3/6 516/3/6 519/3/6
f 519/3/6 516/3/6 520/3/6
f 521/3/6 522/3/6 525/3/6
f 525/3/6 522/3/6 526/3/6
f 523/3/6 524/3/6 527/3/6
f 527/3/6 524/3/6 528/3/6
f 529/3/6 530/3/6 531/3/6
f 531/3/6 530/3/6 532/3/6
f 533/4/6 534/4/6 537/4/6
f 537/4/6 534/4/6 538/4/6
f 535/4/6 536/4/6 539/4/6
f 539/4/6 536/4/6 540/4/6
f 541/3/6 542/3/6 545/3/6
f 545/3/6 542/3/6 546/3/6
f 543/3/6 544/3/6 547/3/6
f 547/3/6 544/3/6 548/3/6
f 549/3/6 550/3/6 551/3/6
f 551/3/6 550/3/6 552/3/6
f 552/3/6 550/3/6 553/3/6
f 553/3/6 550/3/6 554/3/6
f 552/3/6 553/3/6 555/3/6
f 555/3/6 553/3/6 556/3/6
f 555/2/6 556/2/6 557/2/6
f 557/2/6 556/2/6 558/2/6
f 557/3/6 558/3/6 559/3/6
f 559/3/6 558/3/6 560/3/6
f 561/4/6 562/4/6 565/4/6
f 565/4/6 562/4/6 566/4/6
f 563/4/6 564/4/6 567/4/6
f 567/4/6 564/4/6 568/4/6
f 569/4/6 570/4/6 573/4/6
f 573/4/6 570/4/6 574/4/6
f 571/4/6 572/4/6 575/4/6
f 575/4/6 572/4/6 576/4/6
f 577/3/6 578/3/6 581/3/6
f 581/3/6 578/3/6 582/3/6
f 579/3/6 580/3/6 583/3/6
f 583/3/6 580/3/6 584/3/6
f 581/2/6 582/2/6 585/2/6
f 585/2/6 582/2/6 586/2/6
f 583/2/6 584/2/6 587/2/6
f 587/2/6 584/2/6 588/2/6
f 585/3/6 586/3/6 589/3/6
f 589/3/6 586/3/6 590/3/6
f 587/3/6 588/3/6 591/3/6
f 591/3/6 588/3/6 592/3/6
f 593/3/6 594/3/6 597/3/6
f 595/3/6 596/3/6 598/3/6
f 593/3/6 597/3/6 599/3/6
f 599/3/6 597/3/6 600/3/6
f 598/3/6 596/3/6 601/3/6
f 601/3/6 596/3/6 602/3/6
f 603/3/6 604/3/6 607/3/6
f 605/3/6 606/3/6 610/3/6
f 607/3/6 608/3/6 611/3/6
f 609/3/6 610/3/6 612/3/6
f 607/3/6 611/3/6 613/3/6
f 611/3/6 612/3/6 613/3/6
f 603/3/6 607/3/6 613/3/6
f 612/3/6 610/3/6 614/3/6
f 613/3/6 612/3/6 614/3/6
f 610/3/6 606/3/6 614/3/6
f 613/1/6 614/1/6 615/1/6
f 615/1/6 614/1/6 616/1/6
f 617/3/6 618/3/6 621/3/6
f 621/3/6 618/3/6 622/3/6
f 619/3/6 620/3/6 623/3/6
f 623/3/6 620/3/6 624/3/6
f 622/3/6 623/3/6 625/3/6
f 625/3/6 623/3/6 626/3/6
f 627/3/6 628/3/6 631/3/6
f 631/3/6 628/3/6 632/3/6
f 629/3/6 630/3/6 633/3/6
f 633/3/6 630/3/6 634/3/6
f 632/3/6 633/3/6 635/3/6
f 635/3/6 633/3/6 636/3/6
f 637/3/6 638/3/6 641/3/6
f 641/3/6 638/3/6 642/3/6
f 639/3/6 640/3/6 643/3/6
f 643/3/6 640/3/6 644/3/6
f 642/3/6 643/3/6 645/3/6
f 645/3/6 643/3/6 646/3/6
f 647/3/6 648/3/6 649/3/6
f 649/3/6 648/3/6 650/3/6
f 651/3/6 652/3/6 653/3/6
f 653/3/6 652/3/6 654/3/6
f 655/3/6 656/3/6 657/3/6
f 657/3/6 656/3/6 658/3/6
f 659/3/6 660/3/6 661/3/6
f 661/3/6 660/3/6 662/3/6
