# Blender 4.5.1 LTS
# www.blender.org
mtllib PlayerShip_V3.mtl
o Ship
v 0.104344 0.194816 0.318493
v 0.120218 -0.099757 0.308829
v 0.056659 -0.118341 0.919102
v -0.000000 0.040917 -0.309229
v -0.000000 -0.057047 0.938301
v -0.000000 -0.118341 -0.309229
v 0.070461 0.079099 0.779691
v -0.000000 -0.118341 0.719238
v 0.070461 -0.118341 0.719238
v 0.120218 0.022581 0.308829
v 0.104344 -0.118341 -0.309229
v 0.056659 -0.057047 0.938301
v -0.000000 0.079099 0.779691
v 0.070461 -0.009501 0.751942
v -0.000000 -0.118341 0.919102
v 0.104344 0.040917 -0.309229
v -0.000000 -0.118341 0.318493
v -0.000000 0.194816 0.318493
v 0.210905 0.022581 0.253618
v 0.210905 -0.099757 0.253618
v 0.226779 0.040453 -0.309229
v -0.000000 -0.118341 -0.036569
v 0.104344 -0.118341 -0.036569
v 0.104344 0.108379 -0.036569
v 0.104344 0.019889 -0.036569
v 0.226779 -0.118341 -0.036655
v 0.226779 0.040709 -0.036655
v 0.104344 0.041165 0.318493
v 0.104344 -0.118341 0.318493
v 0.226779 0.041165 0.243954
v 0.132951 0.005404 0.259716
v 0.132951 -0.082580 0.259716
v 0.198172 0.005404 0.220009
v 0.198172 -0.082580 0.220009
v 0.462924 -0.119156 0.178898
v 0.757838 -0.119156 0.085620
v 0.757838 -0.118341 -0.058595
v 0.757838 -0.118300 -0.241150
v 0.462924 -0.118300 -0.363391
v 0.757838 -0.108958 -0.058595
v 0.462925 -0.095432 -0.052096
v 0.124317 0.075387 -0.309229
v 0.206806 -0.153331 -0.309229
v 0.124317 -0.153331 -0.309229
v 0.124317 -0.153331 -0.084251
v 0.124317 0.075754 -0.084251
v 0.206806 -0.153331 -0.084322
v 0.214502 0.060578 -0.272408
v 0.075930 -0.155187 -0.380602
v 0.075930 0.077312 -0.380602
v 0.255193 0.077312 -0.380603
v 0.255193 -0.155187 -0.380602
v 0.105173 0.128459 -0.380603
v 0.225950 0.128459 -0.380603
v 0.225950 -0.206416 -0.380603
v 0.105173 -0.206416 -0.380603
v 0.462925 -0.122420 -0.052096
v 0.226779 -0.109155 -0.036655
v 0.226779 -0.118341 -0.309229
v 0.226779 -0.119156 0.243954
v 0.206806 0.075754 -0.084322
v 0.206806 0.075387 -0.309229
v 0.214502 0.060798 -0.086748
v 0.387343 0.212022 -0.272408
v 0.387343 0.212094 -0.210235
v 0.389634 0.209444 -0.241319
v 0.214502 0.060688 -0.179578
v 0.300923 0.136446 -0.148492
v 0.300923 0.136300 -0.272408
v 0.385052 0.214673 -0.241325
v 0.293147 0.138987 -0.210453
v 0.302068 0.131684 -0.194114
v 0.104344 0.194816 0.318493
v -0.000000 0.040917 -0.309229
v 0.104344 0.040917 -0.309229
v -0.000000 0.194816 0.318493
v 0.104344 0.108379 -0.036569
v 0.104344 0.019889 -0.036569
v -0.000000 0.108379 -0.036569
v 0.226779 0.040709 -0.036655
v 0.104344 0.041165 0.318493
v 0.226779 0.041165 0.243954
v 0.124317 0.075387 -0.309229
v 0.124317 0.075754 -0.084251
v 0.206806 0.075754 -0.084322
v 0.206806 0.075387 -0.309229
v -0.104344 0.194816 0.318493
v -0.120218 -0.099757 0.308829
v -0.056659 -0.118341 0.919102
v -0.070461 0.079099 0.779691
v -0.070461 -0.118341 0.719238
v -0.120218 0.022581 0.308829
v -0.104344 -0.118341 -0.309229
v -0.056659 -0.057047 0.938301
v -0.070461 -0.009501 0.751942
v -0.104344 0.040917 -0.309229
v -0.210905 0.022581 0.253618
v -0.210905 -0.099757 0.253618
v -0.226779 0.040453 -0.309229
v -0.104344 -0.118341 -0.036569
v -0.104344 0.108379 -0.036569
v -0.104344 0.019889 -0.036569
v -0.226779 -0.118341 -0.036655
v -0.226779 0.040709 -0.036655
v -0.104344 0.041165 0.318493
v -0.104344 -0.118341 0.318493
v -0.226779 0.041165 0.243954
v -0.132951 0.005404 0.259716
v -0.132951 -0.082580 0.259716
v -0.198172 0.005404 0.220009
v -0.198172 -0.082580 0.220009
v -0.462924 -0.119156 0.178898
v -0.757838 -0.119156 0.085620
v -0.757838 -0.118341 -0.058595
v -0.757838 -0.118300 -0.241150
v -0.462924 -0.118300 -0.363391
v -0.757838 -0.108958 -0.058595
v -0.462925 -0.095432 -0.052096
v -0.124317 0.075387 -0.309229
v -0.206806 -0.153331 -0.309229
v -0.124317 -0.153331 -0.309229
v -0.124317 -0.153331 -0.084251
v -0.124317 0.075754 -0.084251
v -0.206806 -0.153331 -0.084322
v -0.214502 0.060578 -0.272408
v -0.075930 -0.155187 -0.380602
v -0.075930 0.077312 -0.380602
v -0.255193 0.077312 -0.380603
v -0.255193 -0.155187 -0.380602
v -0.105173 0.128459 -0.380603
v -0.225950 0.128459 -0.380603
v -0.225950 -0.206416 -0.380603
v -0.105173 -0.206416 -0.380603
v -0.462925 -0.122420 -0.052096
v -0.226779 -0.109155 -0.036655
v -0.226779 -0.118341 -0.309229
v -0.226779 -0.119156 0.243954
v -0.206806 0.075754 -0.084322
v -0.206806 0.075387 -0.309229
v -0.214502 0.060798 -0.086748
v -0.387343 0.212022 -0.272408
v -0.387343 0.212094 -0.210235
v -0.389634 0.209444 -0.241319
v -0.214502 0.060688 -0.179578
v -0.300923 0.136446 -0.148492
v -0.300923 0.136300 -0.272408
v -0.385052 0.214673 -0.241325
v -0.293147 0.138987 -0.210453
v -0.302068 0.131684 -0.194114
v -0.104344 0.194816 0.318493
v -0.104344 0.040917 -0.309229
v -0.104344 0.108379 -0.036569
v -0.104344 0.019889 -0.036569
v -0.226779 0.040709 -0.036655
v -0.104344 0.041165 0.318493
v -0.226779 0.041165 0.243954
v -0.124317 0.075387 -0.309229
v -0.124317 0.075754 -0.084251
v -0.206806 0.075754 -0.084322
v -0.206806 0.075387 -0.309229
vn -0.0000 -1.0000 -0.0000
vn -0.0000 -0.0000 -1.0000
vn -0.0000 -0.2989 0.9543
vn 0.9974 -0.0214 0.0684
vn 0.9972 -0.0085 0.0740
vn 0.9967 -0.0098 0.0804
vn 0.9974 -0.0210 0.0687
vn -0.0000 0.7588 0.6513
vn 0.2274 0.8993 0.3735
vn 1.0000 -0.0000 -0.0000
vn -0.0000 0.9699 0.2434
vn 0.0380 0.9952 0.0900
vn -0.8685 -0.4957 -0.0000
vn -0.0037 -1.0000 -0.0013
vn -0.9111 0.4119 0.0171
vn 0.5200 -0.0000 0.8542
vn 0.9680 -0.0000 0.2510
vn 0.2274 -0.8993 0.3735
vn -0.9351 -0.0000 0.3543
vn 0.0356 0.9972 -0.0650
vn -0.0000 -0.8024 0.5968
vn -0.0728 0.7218 0.6882
vn 0.8866 0.4614 -0.0322
vn 0.7442 -0.4248 0.5155
vn 0.0005 -0.8062 0.5917
vn 0.8685 -0.4957 -0.0000
vn -0.7442 -0.4248 0.5155
vn 0.9291 -0.0000 0.3699
vn -0.0000 0.8025 0.5967
vn -0.7430 0.4271 0.5152
vn -0.9291 -0.0000 0.3699
vn 0.7438 0.4252 0.5157
vn -0.0078 -1.0000 0.0048
vn -0.0096 -0.9999 -0.0071
vn 0.0086 -0.9999 -0.0084
vn 0.0080 -0.9999 0.0065
vn -0.0178 0.9977 0.0658
vn -0.0372 0.9978 -0.0548
vn 0.8680 0.4963 0.0182
vn 0.8886 0.4587 -0.0007
vn 0.8536 0.5210 -0.0005
vn 0.7521 0.6590 -0.0008
vn -0.6096 0.7851 0.1091
vn -0.6544 0.7476 -0.1137
vn -0.6862 0.7259 -0.0476
vn -0.6677 0.7431 0.0452
vn 0.6523 -0.7573 0.0320
vn 0.6433 -0.7652 -0.0245
vn 0.6926 -0.7144 0.1001
vn 0.6491 -0.7574 -0.0702
vn -0.0000 0.9707 -0.2402
vn -0.0950 0.9949 -0.0340
vn -0.0000 0.9716 -0.2365
vn -0.0000 1.0000 -0.0016
vn -0.9974 -0.0214 0.0684
vn -0.9972 -0.0085 0.0740
vn -0.9967 -0.0098 0.0804
vn -0.9974 -0.0210 0.0687
vn -0.2274 0.8993 0.3735
vn -1.0000 -0.0000 -0.0000
vn -0.0380 0.9952 0.0900
vn 0.0037 -1.0000 -0.0013
vn 0.9111 0.4119 0.0171
vn -0.5200 -0.0000 0.8542
vn -0.9680 -0.0000 0.2510
vn -0.2274 -0.8993 0.3735
vn 0.9351 -0.0000 0.3543
vn -0.0356 0.9972 -0.0650
vn 0.0728 0.7218 0.6882
vn -0.8866 0.4614 -0.0322
vn -0.0005 -0.8062 0.5917
vn 0.7430 0.4271 0.5152
vn -0.7438 0.4252 0.5157
vn 0.0078 -1.0000 0.0048
vn 0.0096 -0.9999 -0.0071
vn -0.0086 -0.9999 -0.0084
vn -0.0080 -0.9999 0.0065
vn 0.0178 0.9977 0.0658
vn 0.0372 0.9978 -0.0548
vn -0.8680 0.4963 0.0182
vn -0.8886 0.4587 -0.0007
vn -0.8536 0.5210 -0.0005
vn -0.7521 0.6590 -0.0008
vn 0.6096 0.7851 0.1091
vn 0.6544 0.7476 -0.1137
vn 0.6862 0.7259 -0.0476
vn 0.6677 0.7431 0.0452
vn -0.6523 -0.7573 0.0320
vn -0.6433 -0.7652 -0.0245
vn -0.6926 -0.7144 0.1001
vn -0.6491 -0.7574 -0.0702
vn 0.0950 0.9949 -0.0340
vt 0.088122 0.139207
vt 0.075622 0.169824
vt 0.049628 0.169824
vt 0.049628 0.139207
vt 0.076272 0.714885
vt 0.076272 0.278345
vt 0.170545 0.278345
vt 0.170545 0.714885
vt 0.138052 0.185583
vt 0.141515 0.736082
vt 0.116433 0.736082
vt 0.112969 0.185583
vt 0.323947 0.767855
vt 0.289999 0.763305
vt 0.329584 0.697126
vt 0.332623 0.928616
vt 0.276759 0.938221
vt 0.070530 0.185094
vt 0.049628 0.185094
vt 0.109349 0.185610
vt 0.109349 0.694470
vt 0.073944 0.532833
vt 0.076615 0.185610
vt 0.058721 0.381152
vt 0.060290 0.185610
vt 0.088122 0.112080
vt 0.049628 0.112080
vt 0.337396 0.700686
vt 0.342488 0.759199
vt 0.316494 0.759199
vt 0.316494 0.700686
vt 0.080465 0.060777
vt 0.138277 0.060777
vt 0.130159 0.071727
vt 0.088582 0.071727
vt 0.051636 0.629773
vt 0.051636 0.461330
vt 0.157974 0.501358
vt 0.354988 0.929342
vt 0.316494 0.929342
vt 0.138358 0.693014
vt 0.138358 0.214915
vt 0.160623 0.185610
vt 0.160623 0.692199
vt 0.141858 0.965366
vt 0.141858 0.946182
vt 0.166351 0.953929
vt 0.166351 0.965906
vt 0.088122 0.091248
vt 0.095490 0.091248
vt 0.095490 0.108437
vt 0.133290 0.112073
vt 0.133290 0.133512
vt 0.112077 0.986722
vt 0.112077 0.964077
vt 0.113735 0.968037
vt 0.113735 0.986722
vt 0.115437 0.694470
vt 0.115437 0.183011
vt 0.163042 0.641068
vt 0.040379 0.641068
vt 0.163042 0.641068
vt 0.049628 0.091248
vt 0.055597 0.235104
vt 0.055597 0.558184
vt 0.047438 0.607169
vt 0.047438 0.184273
vt 0.102208 0.558184
vt 0.102208 0.235719
vt 0.110366 0.184587
vt 0.110366 0.607169
vt 0.239632 0.968634
vt 0.239632 0.948277
vt 0.311478 0.948277
vt 0.311478 0.968634
vt 0.080465 0.138765
vt 0.088582 0.127815
vt 0.138277 0.138765
vt 0.130159 0.127815
vt 0.166351 0.981068
vt 0.141858 0.991220
vt 0.484990 0.000000
vt 0.487845 1.000000
vt 0.481863 1.000000
vt 0.485512 0.000000
vt 0.125922 0.091248
vt 0.125922 0.108431
vt 0.271299 0.177664
vt 0.347023 0.177664
vt 0.364596 0.128932
vt 0.253725 0.128932
vt 0.122245 0.964084
vt 0.120586 0.968043
vt 0.051670 0.500960
vt 0.071206 0.539201
vt 0.070260 0.567671
vt 0.252964 0.209783
vt 0.226881 0.175960
vt 0.133290 0.091248
vt 0.365357 0.209783
vt 0.391441 0.175960
vt 0.252964 0.861413
vt 0.226881 0.895248
vt 0.347023 0.893481
vt 0.271299 0.893481
vt 0.253725 0.942200
vt 0.364596 0.942200
vt 0.365357 0.861839
vt 0.391441 0.895248
vt 0.987167 0.955973
vt 0.670003 0.993358
vt 0.608179 0.783240
vt 0.925343 0.993358
vt 0.608179 0.955470
vt 0.925343 0.745290
vt 0.987167 0.783240
vt 0.670003 0.745290
vt 0.039712 0.136913
vt 0.039712 0.114044
vt 0.094827 0.114044
vt 0.094827 0.136913
vt 0.094827 0.086628
vt 0.039712 0.086628
vt 0.163657 0.114044
vt 0.163657 0.086628
vt 0.163657 0.136913
vt 0.122245 0.940778
vt 0.375000 0.500000
vt 0.382354 0.500000
vt 0.375000 0.500000
vt 0.122245 0.986722
vt 0.121226 0.983664
vt 0.122245 0.986722
vt 0.120586 0.986722
vt 0.121226 0.968244
vt 0.121226 0.975954
vt 0.548822 1.000000
vt 0.466838 1.000000
vt 0.490455 0.000000
vt 0.128403 0.973372
vt 0.135581 0.978500
vt 0.135390 0.981082
vt 0.127757 0.978518
vt 0.135581 0.983664
vt 0.128403 0.983664
vt 0.497676 0.000000
vt 0.571606 1.000009
vt 0.425806 0.999991
vt 0.054151 0.022577
vt 0.108961 0.023660
vt 0.126548 0.085917
vt 0.087410 0.085403
vt 0.164372 0.024754
vt 0.165978 0.087440
vt 0.146680 0.157186
vt 0.125509 0.157372
vt 0.167805 0.158766
vt 0.103410 0.964077
vt 0.103410 0.986722
vt 0.112077 0.934588
vt 0.103410 0.934588
vt 0.064963 0.965366
vt 0.040470 0.965906
vt 0.040470 0.953929
vt 0.064963 0.946182
vt 0.094744 0.986722
vt 0.093086 0.986722
vt 0.093086 0.968037
vt 0.094744 0.964077
vt 0.064963 0.991220
vt 0.040470 0.981068
vt 0.481890 0.000000
vt 0.086234 0.968043
vt 0.084576 0.964084
vt 0.084576 0.940778
vt 0.084576 0.986722
vt 0.085595 0.983664
vt 0.086234 0.986722
vt 0.084576 0.986722
vt 0.085595 0.975954
vt 0.085595 0.968244
vt 0.457357 1.000000
vt 0.433626 0.000000
vt 0.423757 1.000000
vt 0.078418 0.973372
vt 0.079064 0.978518
vt 0.071431 0.981082
vt 0.071240 0.978500
vt 0.078418 0.983664
vt 0.071240 0.983664
vt 0.485923 0.000000
vt 0.468431 1.000000
vt 0.508654 1.000000
vt 0.094744 0.934588
s 0
usemtl Space_Ship_Material
f 29/1/1 9/2/1 8/3/1 17/4/1
f 16/5/2 11/6/2 6/7/2 4/8/2
f 3/9/3 12/10/3 5/11/3 15/12/3
f 14/13/4 7/14/4 12/15/4
f 28/16/5 1/17/5 7/14/5 14/13/5
f 9/2/1 3/18/1 15/19/1 8/3/1
f 29/20/6 28/21/6 14/22/6 9/23/6
f 9/23/7 14/22/7 12/24/7 3/25/7
f 23/26/1 29/1/1 17/4/1 22/27/1
f 12/28/8 7/29/8 13/30/8 5/31/8
f 2/32/9 20/33/9 34/34/9 32/35/9
f 24/36/10 25/37/10 16/38/10
f 7/29/11 1/39/11 18/40/11 13/30/11
f 27/41/10 58/42/10 59/43/10 21/44/10
f 41/45/12 35/46/12 36/47/12 40/48/12
f 23/26/13 11/49/13 44/50/13 45/51/13
f 29/1/14 23/26/14 26/52/14 60/53/14
f 16/54/15 25/55/15 46/56/15 42/57/15
f 30/58/10 60/59/10 58/42/10 27/41/10
f 1/60/10 28/61/10 25/61/10 24/62/10
f 11/49/1 23/26/1 22/27/1 6/63/1
f 2/64/16 10/65/16 28/66/16 29/67/16
f 19/68/16 20/69/16 60/70/16 30/71/16
f 20/69/16 2/64/16 29/67/16 60/70/16
f 10/65/16 19/68/16 30/71/16 28/66/16
f 31/72/16 32/73/16 34/74/16 33/75/16
f 10/76/17 2/32/17 32/35/17 31/77/17
f 19/78/18 10/76/18 31/77/18 33/79/18
f 20/33/19 19/78/19 33/79/19 34/34/19
f 41/45/20 40/48/20 38/80/20 39/81/20
f 38/82/10 40/83/10 37/84/10
f 36/85/10 37/83/10 40/84/10
f 45/51/1 44/50/1 43/86/1 47/87/1
f 43/88/21 44/89/21 56/90/21 55/91/21
f 25/55/22 27/92/22 61/93/22 46/56/22
f 27/94/23 63/95/23 61/96/23
f 59/97/24 43/88/24 55/91/24 52/98/24
f 26/52/25 23/26/25 45/51/25 47/87/25
f 59/99/26 26/52/26 47/87/26 43/86/26
f 44/89/27 11/100/27 49/101/27 56/90/27
f 21/102/28 59/97/28 52/98/28 51/103/28
f 42/104/29 62/105/29 54/106/29 53/107/29
f 16/108/30 42/104/30 53/107/30 50/109/30
f 11/100/31 16/108/31 50/109/31 49/101/31
f 62/105/32 21/102/32 51/103/32 54/106/32
f 16/110/2 62/111/2 59/112/2
f 42/113/2 62/111/2 16/110/2
f 21/114/2 59/112/2 62/111/2
f 16/110/2 59/112/2 44/115/2
f 44/115/2 11/116/2 16/110/2
f 43/117/2 44/115/2 59/112/2
f 60/118/33 26/119/33 57/120/33 35/121/33
f 39/122/34 57/120/34 26/119/34 59/123/34
f 37/124/35 57/120/35 39/122/35 38/125/35
f 36/126/36 35/121/36 57/120/36 37/124/36
f 58/92/37 60/127/37 35/46/37 41/45/37
f 59/128/10 58/129/10 26/130/10
f 58/129/10 60/128/10 26/130/10
f 41/45/38 39/81/38 59/131/38 58/92/38
f 48/132/39 21/133/39 62/134/39
f 61/93/40 63/135/40 67/136/40 48/132/40 62/134/40
f 63/135/41 27/92/41 21/133/41 48/132/41 67/136/41
f 66/137/42 70/138/42 65/139/42
f 68/140/43 65/141/43 70/142/43 71/143/43
f 70/142/44 64/144/44 69/145/44 71/143/44
f 71/143/45 69/145/45 48/132/45 67/136/45
f 63/135/46 68/140/46 71/143/46 67/136/46
f 64/146/42 70/147/42 66/148/42
f 63/149/47 67/150/47 72/151/47 68/152/47
f 67/150/48 48/153/48 69/154/48 72/151/48
f 66/155/49 65/156/49 68/152/49 72/151/49
f 66/155/50 72/151/50 69/154/50 64/157/50
f 79/158/51 77/55/51 75/54/51 74/159/51
f 78/55/52 81/160/52 82/127/52 80/92/52
f 76/161/53 73/160/53 77/55/53 79/158/53
f 83/57/54 84/56/54 85/93/54 86/134/54
f 106/1/1 17/4/1 8/3/1 91/2/1
f 96/5/2 4/8/2 6/7/2 93/6/2
f 89/9/3 15/12/3 5/11/3 94/10/3
f 95/13/55 94/15/55 90/14/55
f 105/16/56 95/13/56 90/14/56 87/17/56
f 91/2/1 8/3/1 15/19/1 89/18/1
f 106/20/57 91/23/57 95/22/57 105/21/57
f 91/23/58 89/25/58 94/24/58 95/22/58
f 100/26/1 22/27/1 17/4/1 106/1/1
f 94/28/8 5/31/8 13/30/8 90/29/8
f 88/32/59 109/35/59 111/34/59 98/33/59
f 101/36/60 96/38/60 102/37/60
f 90/29/11 13/30/11 18/40/11 87/39/11
f 104/41/60 99/44/60 136/43/60 135/42/60
f 118/162/61 117/163/61 113/164/61 112/165/61
f 100/26/26 122/51/26 121/50/26 93/49/26
f 106/1/62 137/53/62 103/52/62 100/26/62
f 96/166/63 119/167/63 123/168/63 102/169/63
f 107/58/60 104/41/60 135/42/60 137/59/60
f 87/60/60 101/62/60 102/61/60 105/61/60
f 93/49/1 6/63/1 22/27/1 100/26/1
f 88/64/64 106/67/64 105/66/64 92/65/64
f 97/68/64 107/71/64 137/70/64 98/69/64
f 98/69/64 137/70/64 106/67/64 88/64/64
f 92/65/64 105/66/64 107/71/64 97/68/64
f 108/72/64 110/75/64 111/74/64 109/73/64
f 92/76/65 108/77/65 109/35/65 88/32/65
f 97/78/66 110/79/66 108/77/66 92/76/66
f 98/33/67 111/34/67 110/79/67 97/78/67
f 118/162/68 116/170/68 115/171/68 117/163/68
f 115/172/60 114/84/60 117/83/60
f 113/85/60 117/84/60 114/83/60
f 122/51/1 124/87/1 120/86/1 121/50/1
f 120/88/21 132/91/21 133/90/21 121/89/21
f 102/169/69 123/168/69 138/173/69 104/174/69
f 104/94/70 138/96/70 140/95/70
f 136/97/27 129/98/27 132/91/27 120/88/27
f 103/52/71 124/87/71 122/51/71 100/26/71
f 136/99/13 120/86/13 124/87/13 103/52/13
f 121/89/24 133/90/24 126/101/24 93/100/24
f 99/102/31 128/103/31 129/98/31 136/97/31
f 119/104/29 130/107/29 131/106/29 139/105/29
f 96/108/72 127/109/72 130/107/72 119/104/72
f 93/100/28 126/101/28 127/109/28 96/108/28
f 139/105/73 131/106/73 128/103/73 99/102/73
f 96/110/2 136/112/2 139/111/2
f 119/113/2 96/110/2 139/111/2
f 99/114/2 139/111/2 136/112/2
f 96/110/2 121/115/2 136/112/2
f 121/115/2 96/110/2 93/116/2
f 120/117/2 136/112/2 121/115/2
f 137/118/74 112/121/74 134/120/74 103/119/74
f 116/122/75 136/123/75 103/119/75 134/120/75
f 114/124/76 115/125/76 116/122/76 134/120/76
f 113/126/77 114/124/77 134/120/77 112/121/77
f 135/174/78 118/162/78 112/165/78 137/175/78
f 136/128/60 103/130/60 135/129/60
f 135/129/60 103/130/60 137/128/60
f 118/162/79 135/174/79 136/176/79 116/170/79
f 125/177/80 139/178/80 99/179/80
f 138/173/81 139/178/81 125/177/81 144/180/81 140/181/81
f 140/181/82 144/180/82 125/177/82 99/179/82 104/174/82
f 143/182/83 142/183/83 147/184/83
f 145/185/84 148/186/84 147/187/84 142/188/84
f 147/187/85 148/186/85 146/189/85 141/190/85
f 148/186/86 144/180/86 125/177/86 146/189/86
f 140/181/87 144/180/87 148/186/87 145/185/87
f 141/191/83 143/192/83 147/193/83
f 140/149/88 145/152/88 149/151/88 144/150/88
f 144/150/89 149/151/89 146/154/89 125/153/89
f 143/155/90 149/151/90 145/152/90 142/156/90
f 143/155/91 141/157/91 146/154/91 149/151/91
f 79/158/51 74/159/51 151/166/51 152/169/51
f 153/169/92 154/174/92 156/175/92 155/194/92
f 76/161/53 79/158/53 152/169/53 150/194/53
f 157/167/54 160/178/54 159/173/54 158/168/54
