# Blender 4.5.1 LTS
# www.blender.org
mtllib PlayerShip_V2.mtl
o Ship
v 0.083475 0.155853 0.254794
v 0.096174 -0.079806 0.247063
v 0.045327 -0.094673 0.735281
v -0.000000 0.032734 -0.247383
v -0.000000 -0.045638 0.750641
v -0.000000 -0.094673 -0.247383
v 0.056369 0.063279 0.623753
v -0.000000 -0.094673 0.575390
v 0.056369 -0.094673 0.575390
v 0.096174 0.018065 0.247063
v 0.083475 -0.094673 -0.247383
v 0.045327 -0.045638 0.750641
v -0.000000 0.063279 0.623753
v 0.056369 -0.007601 0.601554
v -0.000000 -0.094673 0.735281
v 0.083475 0.032734 -0.247383
v -0.000000 -0.094673 0.254794
v -0.000000 0.155853 0.254794
v 0.168724 0.018065 0.202895
v 0.168724 -0.079806 0.202895
v 0.181423 0.032363 -0.247384
v -0.000000 -0.094673 -0.029255
v 0.083475 -0.094673 -0.029255
v 0.083475 0.086703 -0.029255
v 0.083475 0.015911 -0.029255
v 0.181423 -0.094673 -0.029324
v 0.181423 0.032567 -0.029324
v 0.083475 0.032932 0.254794
v 0.083475 -0.094673 0.254794
v 0.181423 0.032932 0.195163
v 0.106361 0.004323 0.207773
v 0.106361 -0.066064 0.207773
v 0.158538 0.004323 0.176008
v 0.158538 -0.066064 0.176008
v 0.370339 -0.095325 0.143118
v 0.606270 -0.095325 0.068496
v 0.606270 -0.094673 -0.046876
v 0.606270 -0.094640 -0.192920
v 0.370339 -0.094640 -0.290713
v 0.606270 -0.087166 -0.046876
v 0.370340 -0.076346 -0.041677
v 0.099453 0.060309 -0.247384
v 0.165445 -0.122665 -0.247384
v 0.099453 -0.122665 -0.247384
v 0.099453 -0.122665 -0.067401
v 0.099453 0.060603 -0.067401
v 0.165445 -0.122665 -0.067458
v 0.171602 0.048462 -0.217926
v 0.060744 -0.124149 -0.304482
v 0.060744 0.061849 -0.304482
v 0.204154 0.061849 -0.304482
v 0.204154 -0.124149 -0.304482
v 0.084138 0.102767 -0.304482
v 0.180760 0.102767 -0.304482
v 0.180760 -0.165133 -0.304482
v 0.084138 -0.165133 -0.304482
v 0.370340 -0.097936 -0.041677
v 0.181423 -0.087324 -0.029324
v 0.181423 -0.094673 -0.247383
v 0.181423 -0.095325 0.195163
v 0.165445 0.060603 -0.067458
v 0.165445 0.060309 -0.247384
v 0.171602 0.048638 -0.069398
v 0.309874 0.169618 -0.217926
v 0.309874 0.169675 -0.168188
v 0.311707 0.167555 -0.193055
v 0.171602 0.048550 -0.143662
v 0.240738 0.109157 -0.118793
v 0.240738 0.109040 -0.217926
v 0.308042 0.171738 -0.193060
v 0.234518 0.111190 -0.168362
v 0.241654 0.105347 -0.155292
v 0.083475 0.155853 0.254794
v -0.000000 0.032734 -0.247383
v 0.083475 0.032734 -0.247383
v -0.000000 0.155853 0.254794
v 0.083475 0.086703 -0.029255
v 0.083475 0.015911 -0.029255
v -0.000000 0.086703 -0.029255
v 0.181423 0.032567 -0.029324
v 0.083475 0.032932 0.254794
v 0.181423 0.032932 0.195163
v 0.099453 0.060309 -0.247384
v 0.099453 0.060603 -0.067401
v 0.165445 0.060603 -0.067458
v 0.165445 0.060309 -0.247384
v -0.083475 0.155853 0.254794
v -0.096174 -0.079806 0.247063
v -0.045327 -0.094673 0.735281
v -0.056369 0.063279 0.623753
v -0.056369 -0.094673 0.575390
v -0.096174 0.018065 0.247063
v -0.083475 -0.094673 -0.247383
v -0.045327 -0.045638 0.750641
v -0.056369 -0.007601 0.601554
v -0.083475 0.032734 -0.247383
v -0.168724 0.018065 0.202895
v -0.168724 -0.079806 0.202895
v -0.181423 0.032363 -0.247384
v -0.083475 -0.094673 -0.029255
v -0.083475 0.086703 -0.029255
v -0.083475 0.015911 -0.029255
v -0.181423 -0.094673 -0.029324
v -0.181423 0.032567 -0.029324
v -0.083475 0.032932 0.254794
v -0.083475 -0.094673 0.254794
v -0.181423 0.032932 0.195163
v -0.106361 0.004323 0.207773
v -0.106361 -0.066064 0.207773
v -0.158538 0.004323 0.176008
v -0.158538 -0.066064 0.176008
v -0.370339 -0.095325 0.143118
v -0.606270 -0.095325 0.068496
v -0.606270 -0.094673 -0.046876
v -0.606270 -0.094640 -0.192920
v -0.370339 -0.094640 -0.290713
v -0.606270 -0.087166 -0.046876
v -0.370340 -0.076346 -0.041677
v -0.099453 0.060309 -0.247384
v -0.165445 -0.122665 -0.247384
v -0.099453 -0.122665 -0.247384
v -0.099453 -0.122665 -0.067401
v -0.099453 0.060603 -0.067401
v -0.165445 -0.122665 -0.067458
v -0.171602 0.048462 -0.217926
v -0.060744 -0.124149 -0.304482
v -0.060744 0.061849 -0.304482
v -0.204154 0.061849 -0.304482
v -0.204154 -0.124149 -0.304482
v -0.084138 0.102767 -0.304482
v -0.180760 0.102767 -0.304482
v -0.180760 -0.165133 -0.304482
v -0.084138 -0.165133 -0.304482
v -0.370340 -0.097936 -0.041677
v -0.181423 -0.087324 -0.029324
v -0.181423 -0.094673 -0.247383
v -0.181423 -0.095325 0.195163
v -0.165445 0.060603 -0.067458
v -0.165445 0.060309 -0.247384
v -0.171602 0.048638 -0.069398
v -0.309874 0.169618 -0.217926
v -0.309874 0.169675 -0.168188
v -0.311707 0.167555 -0.193055
v -0.171602 0.048550 -0.143662
v -0.240738 0.109157 -0.118793
v -0.240738 0.109040 -0.217926
v -0.308042 0.171738 -0.193060
v -0.234518 0.111190 -0.168362
v -0.241654 0.105347 -0.155292
v -0.083475 0.155853 0.254794
v -0.083475 0.032734 -0.247383
v -0.083475 0.086703 -0.029255
v -0.083475 0.015911 -0.029255
v -0.181423 0.032567 -0.029324
v -0.083475 0.032932 0.254794
v -0.181423 0.032932 0.195163
v -0.099453 0.060309 -0.247384
v -0.099453 0.060603 -0.067401
v -0.165445 0.060603 -0.067458
v -0.165445 0.060309 -0.247384
vn -0.0000 -1.0000 -0.0000
vn -0.0000 -0.0000 -1.0000
vn -0.0000 -0.2989 0.9543
vn 0.9974 -0.0214 0.0684
vn 0.9972 -0.0085 0.0740
vn 0.9967 -0.0098 0.0804
vn 0.9974 -0.0210 0.0687
vn -0.0000 0.7588 0.6513
vn 0.2274 0.8993 0.3735
vn 1.0000 -0.0000 -0.0000
vn -0.0000 0.9699 0.2434
vn 0.0380 0.9952 0.0900
vn -0.8685 -0.4957 -0.0000
vn -0.0037 -1.0000 -0.0013
vn -0.9111 0.4119 0.0171
vn 0.5200 -0.0000 0.8542
vn 0.9680 -0.0000 0.2510
vn 0.2274 -0.8993 0.3735
vn -0.9351 -0.0000 0.3543
vn 0.0356 0.9972 -0.0650
vn -0.0000 -0.8024 0.5968
vn -0.0728 0.7218 0.6882
vn 0.8866 0.4614 -0.0322
vn 0.7442 -0.4248 0.5155
vn 0.0005 -0.8062 0.5917
vn 0.8685 -0.4957 -0.0000
vn -0.7442 -0.4248 0.5155
vn 0.9291 -0.0000 0.3699
vn -0.0000 0.8025 0.5967
vn -0.7430 0.4271 0.5152
vn -0.9291 -0.0000 0.3699
vn 0.7438 0.4252 0.5157
vn -0.0078 -1.0000 0.0048
vn -0.0096 -0.9999 -0.0071
vn 0.0086 -0.9999 -0.0084
vn 0.0080 -0.9999 0.0065
vn -0.0178 0.9977 0.0658
vn -0.0372 0.9978 -0.0548
vn 0.8680 0.4963 0.0182
vn 0.8886 0.4587 -0.0007
vn 0.8536 0.5210 -0.0005
vn 0.7521 0.6590 -0.0008
vn -0.6096 0.7851 0.1091
vn -0.6544 0.7476 -0.1137
vn -0.6862 0.7259 -0.0476
vn -0.6677 0.7431 0.0452
vn 0.6523 -0.7573 0.0320
vn 0.6433 -0.7652 -0.0245
vn 0.6926 -0.7144 0.1001
vn 0.6491 -0.7574 -0.0702
vn -0.0000 0.9707 -0.2402
vn -0.0950 0.9949 -0.0340
vn -0.0000 0.9716 -0.2365
vn -0.0000 1.0000 -0.0016
vn -0.9974 -0.0214 0.0684
vn -0.9972 -0.0085 0.0740
vn -0.9967 -0.0098 0.0804
vn -0.9974 -0.0210 0.0687
vn -0.2274 0.8993 0.3735
vn -1.0000 -0.0000 -0.0000
vn -0.0380 0.9952 0.0900
vn 0.0037 -1.0000 -0.0013
vn 0.9111 0.4119 0.0171
vn -0.5200 -0.0000 0.8542
vn -0.9680 -0.0000 0.2510
vn -0.2274 -0.8993 0.3735
vn 0.9351 -0.0000 0.3543
vn -0.0356 0.9972 -0.0650
vn 0.0728 0.7218 0.6882
vn -0.8866 0.4614 -0.0322
vn -0.0005 -0.8062 0.5917
vn 0.7430 0.4271 0.5152
vn -0.7438 0.4252 0.5157
vn 0.0078 -1.0000 0.0048
vn 0.0096 -0.9999 -0.0071
vn -0.0086 -0.9999 -0.0084
vn -0.0080 -0.9999 0.0065
vn 0.0178 0.9977 0.0658
vn 0.0372 0.9978 -0.0548
vn -0.8680 0.4963 0.0182
vn -0.8886 0.4587 -0.0007
vn -0.8536 0.5210 -0.0005
vn -0.7521 0.6590 -0.0008
vn 0.6096 0.7851 0.1091
vn 0.6544 0.7476 -0.1137
vn 0.6862 0.7259 -0.0476
vn 0.6677 0.7431 0.0452
vn -0.6523 -0.7573 0.0320
vn -0.6433 -0.7652 -0.0245
vn -0.6926 -0.7144 0.1001
vn -0.6491 -0.7574 -0.0702
vn 0.0950 0.9949 -0.0340
vt 0.088122 0.139207
vt 0.075622 0.169824
vt 0.049628 0.169824
vt 0.049628 0.139207
vt 0.076272 0.714885
vt 0.076272 0.278345
vt 0.170545 0.278345
vt 0.170545 0.714885
vt 0.138052 0.185583
vt 0.141515 0.736082
vt 0.116433 0.736082
vt 0.112969 0.185583
vt 0.323947 0.767855
vt 0.289999 0.763305
vt 0.329584 0.697126
vt 0.332623 0.928616
vt 0.276759 0.938221
vt 0.070530 0.185094
vt 0.049628 0.185094
vt 0.109349 0.185610
vt 0.109349 0.694470
vt 0.073944 0.532833
vt 0.076615 0.185610
vt 0.058721 0.381152
vt 0.060290 0.185610
vt 0.088122 0.112080
vt 0.049628 0.112080
vt 0.337396 0.700686
vt 0.342488 0.759199
vt 0.316494 0.759199
vt 0.316494 0.700686
vt 0.080465 0.060777
vt 0.138277 0.060777
vt 0.130159 0.071727
vt 0.088582 0.071727
vt 0.051636 0.629773
vt 0.051636 0.461330
vt 0.157974 0.501358
vt 0.354988 0.929342
vt 0.316494 0.929342
vt 0.138358 0.693014
vt 0.138358 0.214915
vt 0.160623 0.185610
vt 0.160623 0.692199
vt 0.105605 0.400687
vt 0.105605 0.372582
vt 0.140795 0.372582
vt 0.140795 0.400000
vt 0.088122 0.091248
vt 0.095490 0.091248
vt 0.095490 0.108437
vt 0.133290 0.112073
vt 0.133290 0.133512
vt 0.017368 0.836519
vt 0.017368 0.662703
vt 0.030100 0.693099
vt 0.030100 0.836520
vt 0.115437 0.694470
vt 0.115437 0.183011
vt 0.163042 0.641068
vt 0.040379 0.641068
vt 0.163042 0.641068
vt 0.049628 0.091248
vt 0.055597 0.235104
vt 0.055597 0.558184
vt 0.047438 0.607169
vt 0.047438 0.184273
vt 0.102208 0.558184
vt 0.102208 0.235719
vt 0.110366 0.184587
vt 0.110366 0.607169
vt 0.239632 0.151208
vt 0.239632 0.054287
vt 0.311478 0.054287
vt 0.311478 0.151208
vt 0.080465 0.138765
vt 0.088582 0.127815
vt 0.138277 0.138765
vt 0.130159 0.127815
vt 0.140795 0.454082
vt 0.105605 0.454082
vt 0.481890 0.245680
vt 0.487845 0.948970
vt 0.481863 0.948970
vt 0.485512 0.245680
vt 0.125922 0.091248
vt 0.125922 0.108431
vt 0.271299 0.177664
vt 0.347023 0.177664
vt 0.364596 0.128932
vt 0.253725 0.128932
vt 0.095419 0.662758
vt 0.082687 0.693145
vt 0.051670 0.500960
vt 0.071206 0.539201
vt 0.070260 0.567671
vt 0.252964 0.209783
vt 0.226881 0.175960
vt 0.133290 0.091248
vt 0.365357 0.209783
vt 0.391441 0.175960
vt 0.252964 0.861413
vt 0.226881 0.895248
vt 0.347023 0.893481
vt 0.271299 0.893481
vt 0.253725 0.942200
vt 0.364596 0.942200
vt 0.365357 0.861839
vt 0.391441 0.895248
vt 0.987167 0.955973
vt 0.670003 0.993358
vt 0.608179 0.783240
vt 0.925343 0.993358
vt 0.608179 0.955470
vt 0.925343 0.745290
vt 0.987167 0.783240
vt 0.670003 0.745290
vt 0.039712 0.136913
vt 0.039712 0.114044
vt 0.094827 0.114044
vt 0.094827 0.136913
vt 0.094827 0.086628
vt 0.039712 0.086628
vt 0.163657 0.114044
vt 0.163657 0.086628
vt 0.163657 0.136913
vt 0.077428 0.400000
vt 0.077428 0.372582
vt 0.375000 0.500000
vt 0.382354 0.500000
vt 0.375000 0.500000
vt 0.077428 0.454082
vt 0.143614 0.538782
vt 0.157974 0.500474
vt 0.157974 0.566971
vt 0.107410 0.538991
vt 0.000000 0.000000
vt 0.142684 0.734052
vt 0.197776 0.773412
vt 0.196316 0.793231
vt 0.137728 0.773551
vt 0.197776 0.813047
vt 0.142684 0.813047
vt 0.087592 0.813047
vt 0.087592 0.753869
vt 0.087592 0.694691
vt 0.054151 0.022577
vt 0.108961 0.023660
vt 0.126548 0.085917
vt 0.087410 0.085403
vt 0.164372 0.024754
vt 0.165978 0.087440
vt 0.146680 0.157186
vt 0.125509 0.157372
vt 0.167805 0.158766
vt 0.069127 0.858269
vt 0.115320 0.858269
vt 0.115320 0.978975
vt 0.069127 0.978975
vt 0.115320 0.701084
vt 0.169522 0.734082
vt 0.169522 0.858307
vt 0.069127 0.701084
vt 0.124162 0.978975
vt 0.124162 0.879378
vt 0.160680 0.879409
vt 0.160680 0.978975
s 0
usemtl Space_Ship_Material
f 29/1/1 9/2/1 8/3/1 17/4/1
f 16/5/2 11/6/2 6/7/2 4/8/2
f 3/9/3 12/10/3 5/11/3 15/12/3
f 14/13/4 7/14/4 12/15/4
f 28/16/5 1/17/5 7/14/5 14/13/5
f 9/2/1 3/18/1 15/19/1 8/3/1
f 29/20/6 28/21/6 14/22/6 9/23/6
f 9/23/7 14/22/7 12/24/7 3/25/7
f 23/26/1 29/1/1 17/4/1 22/27/1
f 12/28/8 7/29/8 13/30/8 5/31/8
f 2/32/9 20/33/9 34/34/9 32/35/9
f 24/36/10 25/37/10 16/38/10
f 7/29/11 1/39/11 18/40/11 13/30/11
f 27/41/10 58/42/10 59/43/10 21/44/10
f 41/45/12 35/46/12 36/47/12 40/48/12
f 23/26/13 11/49/13 44/50/13 45/51/13
f 29/1/14 23/26/14 26/52/14 60/53/14
f 16/54/15 25/55/15 46/56/15 42/57/15
f 30/58/10 60/59/10 58/42/10 27/41/10
f 1/60/10 28/61/10 25/61/10 24/62/10
f 11/49/1 23/26/1 22/27/1 6/63/1
f 2/64/16 10/65/16 28/66/16 29/67/16
f 19/68/16 20/69/16 60/70/16 30/71/16
f 20/69/16 2/64/16 29/67/16 60/70/16
f 10/65/16 19/68/16 30/71/16 28/66/16
f 31/72/16 32/73/16 34/74/16 33/75/16
f 10/76/17 2/32/17 32/35/17 31/77/17
f 19/78/18 10/76/18 31/77/18 33/79/18
f 20/33/19 19/78/19 33/79/19 34/34/19
f 41/45/20 40/48/20 38/80/20 39/81/20
f 38/82/10 40/83/10 37/84/10
f 36/85/10 37/83/10 40/84/10
f 45/51/1 44/50/1 43/86/1 47/87/1
f 43/88/21 44/89/21 56/90/21 55/91/21
f 25/55/22 27/92/22 61/93/22 46/56/22
f 27/94/23 63/95/23 61/96/23
f 59/97/24 43/88/24 55/91/24 52/98/24
f 26/52/25 23/26/25 45/51/25 47/87/25
f 59/99/26 26/52/26 47/87/26 43/86/26
f 44/89/27 11/100/27 49/101/27 56/90/27
f 21/102/28 59/97/28 52/98/28 51/103/28
f 42/104/29 62/105/29 54/106/29 53/107/29
f 16/108/30 42/104/30 53/107/30 50/109/30
f 11/100/31 16/108/31 50/109/31 49/101/31
f 62/105/32 21/102/32 51/103/32 54/106/32
f 16/110/2 62/111/2 59/112/2
f 42/113/2 62/111/2 16/110/2
f 21/114/2 59/112/2 62/111/2
f 16/110/2 59/112/2 44/115/2
f 44/115/2 11/116/2 16/110/2
f 43/117/2 44/115/2 59/112/2
f 60/118/33 26/119/33 57/120/33 35/121/33
f 39/122/34 57/120/34 26/119/34 59/123/34
f 37/124/35 57/120/35 39/122/35 38/125/35
f 36/126/36 35/121/36 57/120/36 37/124/36
f 58/127/37 60/128/37 35/46/37 41/45/37
f 59/129/10 58/130/10 26/131/10
f 58/130/10 60/129/10 26/131/10
f 41/45/38 39/81/38 59/132/38 58/127/38
f 48/133/39 21/134/39 62/135/39
f 61/96/40 63/95/40 67/136/40 48/133/40 62/135/40
f 63/95/41 27/94/41 21/134/41 48/133/41 67/136/41
f 66/137/42 70/137/42 65/137/42
f 68/138/43 65/139/43 70/140/43 71/141/43
f 70/140/44 64/142/44 69/143/44 71/141/44
f 71/141/45 69/143/45 48/144/45 67/145/45
f 63/146/46 68/138/46 71/141/46 67/145/46
f 64/137/42 70/137/42 66/137/42
f 63/147/47 67/148/47 72/149/47 68/150/47
f 67/148/48 48/151/48 69/152/48 72/149/48
f 66/153/49 65/154/49 68/150/49 72/149/49
f 66/153/50 72/149/50 69/152/50 64/155/50
f 79/156/51 77/157/51 75/158/51 74/159/51
f 78/157/52 81/160/52 82/161/52 80/162/52
f 76/163/53 73/160/53 77/157/53 79/156/53
f 83/164/54 84/165/54 85/166/54 86/167/54
f 106/1/1 17/4/1 8/3/1 91/2/1
f 96/5/2 4/8/2 6/7/2 93/6/2
f 89/9/3 15/12/3 5/11/3 94/10/3
f 95/13/55 94/15/55 90/14/55
f 105/16/56 95/13/56 90/14/56 87/17/56
f 91/2/1 8/3/1 15/19/1 89/18/1
f 106/20/57 91/23/57 95/22/57 105/21/57
f 91/23/58 89/25/58 94/24/58 95/22/58
f 100/26/1 22/27/1 17/4/1 106/1/1
f 94/28/8 5/31/8 13/30/8 90/29/8
f 88/32/59 109/35/59 111/34/59 98/33/59
f 101/36/60 96/38/60 102/37/60
f 90/29/11 13/30/11 18/40/11 87/39/11
f 104/41/60 99/44/60 136/43/60 135/42/60
f 118/45/61 117/48/61 113/47/61 112/46/61
f 100/26/26 122/51/26 121/50/26 93/49/26
f 106/1/62 137/53/62 103/52/62 100/26/62
f 96/54/63 119/57/63 123/56/63 102/55/63
f 107/58/60 104/41/60 135/42/60 137/59/60
f 87/60/60 101/62/60 102/61/60 105/61/60
f 93/49/1 6/63/1 22/27/1 100/26/1
f 88/64/64 106/67/64 105/66/64 92/65/64
f 97/68/64 107/71/64 137/70/64 98/69/64
f 98/69/64 137/70/64 106/67/64 88/64/64
f 92/65/64 105/66/64 107/71/64 97/68/64
f 108/72/64 110/75/64 111/74/64 109/73/64
f 92/76/65 108/77/65 109/35/65 88/32/65
f 97/78/66 110/79/66 108/77/66 92/76/66
f 98/33/67 111/34/67 110/79/67 97/78/67
f 118/45/68 116/81/68 115/80/68 117/48/68
f 115/82/60 114/84/60 117/83/60
f 113/85/60 117/84/60 114/83/60
f 122/51/1 124/87/1 120/86/1 121/50/1
f 120/88/21 132/91/21 133/90/21 121/89/21
f 102/55/69 123/56/69 138/93/69 104/92/69
f 104/94/70 138/96/70 140/95/70
f 136/97/27 129/98/27 132/91/27 120/88/27
f 103/52/71 124/87/71 122/51/71 100/26/71
f 136/99/13 120/86/13 124/87/13 103/52/13
f 121/89/24 133/90/24 126/101/24 93/100/24
f 99/102/31 128/103/31 129/98/31 136/97/31
f 119/104/29 130/107/29 131/106/29 139/105/29
f 96/108/72 127/109/72 130/107/72 119/104/72
f 93/100/28 126/101/28 127/109/28 96/108/28
f 139/105/73 131/106/73 128/103/73 99/102/73
f 96/110/2 136/112/2 139/111/2
f 119/113/2 96/110/2 139/111/2
f 99/114/2 139/111/2 136/112/2
f 96/110/2 121/115/2 136/112/2
f 121/115/2 96/110/2 93/116/2
f 120/117/2 136/112/2 121/115/2
f 137/118/74 112/121/74 134/120/74 103/119/74
f 116/122/75 136/123/75 103/119/75 134/120/75
f 114/124/76 115/125/76 116/122/76 134/120/76
f 113/126/77 114/124/77 134/120/77 112/121/77
f 135/127/78 118/45/78 112/46/78 137/128/78
f 136/129/60 103/131/60 135/130/60
f 135/130/60 103/131/60 137/129/60
f 118/45/79 135/127/79 136/132/79 116/81/79
f 125/133/80 139/135/80 99/134/80
f 138/96/81 139/135/81 125/133/81 144/136/81 140/95/81
f 140/95/82 144/136/82 125/133/82 99/134/82 104/94/82
f 143/137/83 142/137/83 147/137/83
f 145/138/84 148/141/84 147/140/84 142/139/84
f 147/140/85 148/141/85 146/143/85 141/142/85
f 148/141/86 144/145/86 125/144/86 146/143/86
f 140/146/87 144/145/87 148/141/87 145/138/87
f 141/137/83 143/137/83 147/137/83
f 140/147/88 145/150/88 149/149/88 144/148/88
f 144/148/89 149/149/89 146/152/89 125/151/89
f 143/153/90 149/149/90 145/150/90 142/154/90
f 143/153/91 141/155/91 146/152/91 149/149/91
f 79/156/51 74/159/51 151/158/51 152/157/51
f 153/157/92 154/162/92 156/161/92 155/160/92
f 76/163/53 79/156/53 152/157/53 150/160/53
f 157/164/54 160/167/54 159/166/54 158/165/54
